<?xml version="1.0" standalone="no"?>
<!DOCTYPE svg PUBLIC "-//W3C//DTD SVG 20010904//EN"
 "http://www.w3.org/TR/2001/REC-SVG-20010904/DTD/svg10.dtd">
<svg version="1.0" xmlns="http://www.w3.org/2000/svg"
 width="1012.000000pt" height="1012.000000pt" viewBox="0 0 1012.000000 1012.000000"
 preserveAspectRatio="xMidYMid meet">
<metadata>
Created by potrace 1.14, written by Peter Selinger 2001-2017
</metadata>
<g transform="translate(0.000000,1012.000000) scale(0.100000,-0.100000)"
fill="#000000" stroke="none">
<path d="M2160 7598 c-1 -1281 -1 -5801 -1 -5828 l1 -25 455 0 c298 0 456 3
456 10 1 5 3 426 3 934 l2 925 29 8 c142 40 250 66 257 62 4 -3 8 -11 8 -17 0
-7 22 -80 49 -162 27 -83 77 -238 111 -345 34 -107 85 -269 115 -360 29 -91
64 -201 78 -245 14 -44 57 -181 97 -305 40 -124 90 -281 111 -350 22 -69 44
-132 48 -140 7 -13 71 -15 470 -17 369 -2 463 0 467 10 2 7 -54 197 -126 423
-72 225 -165 515 -206 644 -41 129 -83 260 -94 290 -10 30 -32 98 -48 150 -64
203 -165 519 -192 600 l-28 85 89 45 c156 79 268 174 372 313 42 56 113 203
135 282 19 64 23 84 37 155 11 55 19 160 19 245 0 263 -42 439 -157 659 -82
157 -232 300 -397 378 -89 42 -165 65 -240 73 -30 3 -77 7 -105 10 -59 7 -338
13 -662 16 -128 1 -233 5 -234 8 -1 3 -2 510 -3 1126 l-1 1120 -457 3 -458 2
0 -782z m1549 -2402 c158 -9 191 -23 239 -105 22 -37 26 -57 26 -115 0 -138
-61 -208 -224 -259 -105 -33 -640 -179 -659 -181 -12 -1 -15 50 -15 329 -1
182 3 333 7 336 10 7 465 3 626 -5z"/>
<path d="M8327 6468 c2 -2013 10 -3629 17 -3738 16 -230 25 -280 72 -392 56
-135 190 -304 299 -378 134 -91 350 -176 495 -195 25 -3 63 -8 85 -12 22 -3
217 -7 433 -7 l392 -2 0 451 0 450 -353 1 c-388 0 -389 0 -455 65 -38 37 -49
89 -57 249 -4 90 -9 2130 -6 2228 l1 22 255 0 c140 0 255 3 256 8 3 25 4 889
1 900 -3 9 -63 12 -257 12 -193 0 -254 3 -257 13 -3 6 -4 513 -4 1124 l1 1113
-460 0 -460 0 2 -1912z"/>
<path d="M1057 6124 c-1 -1 -33 -4 -72 -8 -170 -14 -308 -53 -468 -132 -112
-56 -158 -87 -231 -160 -102 -102 -177 -221 -220 -346 -32 -94 -38 -130 -52
-338 -3 -41 -8 -822 -11 -1735 l-5 -1660 458 0 459 0 1 1410 c2 1491 6 1838
25 1923 12 58 39 90 104 125 38 20 55 21 385 23 190 1 348 2 353 3 4 0 6 202
5 448 l-3 448 -363 0 c-200 0 -364 0 -365 -1z"/>
<path d="M6297 6123 c-1 -1 -34 -4 -72 -7 -62 -5 -104 -12 -194 -30 -91 -19
-286 -104 -389 -169 -59 -38 -171 -152 -221 -226 -80 -117 -135 -258 -146
-371 -10 -109 -16 -219 -20 -415 -4 -170 -9 -3093 -6 -3145 1 -13 58 -15 458
-15 l458 0 1 1560 c1 858 4 1598 8 1644 12 170 25 202 101 243 56 31 90 34
330 33 219 -1 244 -3 285 -22 60 -27 90 -61 108 -125 14 -47 16 -241 19 -1638
2 -872 4 -1610 6 -1640 l2 -55 458 0 458 0 -5 1625 c-5 1724 -7 1820 -32 1989
-22 148 -107 310 -234 445 -78 82 -151 134 -274 191 -148 70 -274 106 -431
121 -60 6 -663 13 -668 7z"/>
</g>
</svg>
