<?xml version="1.0" encoding="UTF-8" standalone="no"?>
<!-- Created with Inkscape (http://www.inkscape.org/) -->

<svg
   width="210mm"
   height="297mm"
   viewBox="0 0 210 297"
   version="1.1"
   id="svg1"
   xml:space="preserve"
   inkscape:version="1.3 (0e150ed6c4, 2023-07-21)"
   sodipodi:docname="warcry-warband-tableu.svg"
   xmlns:inkscape="http://www.inkscape.org/namespaces/inkscape"
   xmlns:sodipodi="http://sodipodi.sourceforge.net/DTD/sodipodi-0.dtd"
   xmlns="http://www.w3.org/2000/svg"
   xmlns:svg="http://www.w3.org/2000/svg"><sodipodi:namedview
     id="namedview1"
     pagecolor="#ffffff"
     bordercolor="#666666"
     borderopacity="1.0"
     inkscape:showpageshadow="2"
     inkscape:pageopacity="0.0"
     inkscape:pagecheckerboard="0"
     inkscape:deskcolor="#d1d1d1"
     inkscape:document-units="mm"
     inkscape:zoom="0.51090418"
     inkscape:cx="188.88082"
     inkscape:cy="545.112"
     inkscape:window-width="2538"
     inkscape:window-height="1387"
     inkscape:window-x="8"
     inkscape:window-y="8"
     inkscape:window-maximized="1"
     inkscape:current-layer="layer1" /><defs
     id="defs1" /><g
     inkscape:label="Layer 1"
     inkscape:groupmode="layer"
     id="layer1"><rect
       style="fill:#ededed;fill-opacity:1;stroke:none;stroke-width:0.8;stroke-linejoin:round;stroke-dasharray:none;stroke-opacity:1"
       id="rect3"
       width="53.448997"
       height="251.29369"
       x="9.3593426"
       y="22.293226"
       ry="13.666528" /><rect
       style="fill:#ededed;fill-opacity:1;stroke:none;stroke-width:0.8;stroke-linejoin:round;stroke-dasharray:none;stroke-opacity:1"
       id="rect4"
       width="53.448997"
       height="251.29369"
       x="78.275497"
       y="22.293226"
       ry="13.666528" /><rect
       style="fill:#ededed;fill-opacity:1;stroke:none;stroke-width:0.8;stroke-linejoin:round;stroke-dasharray:none;stroke-opacity:1"
       id="rect5"
       width="53.448997"
       height="251.29369"
       x="147.19167"
       y="22.293226"
       ry="13.666528" /><path
       style="fill:#333333;fill-opacity:1;stroke-width:0.999999"
       d="m 127.37803,151.41213 c -0.13085,1.7566 -0.24853,2.32398 -0.87467,4.21735 -0.46908,1.41845 -2.67635,4.74948 -3.15559,4.76214 -0.12567,0.004 -0.371,-0.42308 -0.54521,-0.94755 -0.1742,-0.52449 -0.62078,-1.38125 -0.99238,-1.90393 -0.64401,-0.9058 -0.87558,-1.87931 -0.50197,-2.11021 0.0955,-0.0591 0.23127,-0.33678 0.30165,-0.61714 0.0704,-0.28039 0.32184,-0.77205 0.55882,-1.09257 0.41318,-0.55887 0.43047,-0.75258 0.42098,-4.71735 -0.009,-3.77755 -0.055,-4.32657 -0.53233,-6.3581 -0.28733,-1.22293 -0.7075,-2.60584 -0.93372,-3.07313 l -0.41129,-0.8496 0.39836,-0.55942 c 0.52651,-0.73943 1.9166,-1.98686 2.21405,-1.98686 0.40711,0 1.89697,1.78661 2.4343,2.91915 0.55777,1.17563 0.78307,1.91592 1.04366,3.42932 0.0925,0.53718 0.30385,1.59201 0.46969,2.34406 0.31224,1.41601 0.34347,3.35129 0.10564,6.54384 z m -7.28886,1.56269 c -0.24113,0.80576 -0.6527,1.83306 -0.91464,2.28287 -0.47618,0.81777 -0.47635,0.81785 -1.93681,0.9547 -0.92838,0.087 -1.89856,0.33338 -2.66248,0.67613 -1.26913,0.56941 -1.44109,0.82341 -1.56946,2.31817 -0.0682,0.79394 -0.1049,0.83515 -1.31699,1.47925 -2.38983,1.26999 -10.24163,1.09313 -12.823848,-0.28884 -0.51697,-0.27668 -1.272965,-1.03325 -2.598439,-2.60048 -0.627723,-0.7422 -1.084646,-1.11038 -1.378027,-1.11038 -0.699238,0 -1.828668,-1.17028 -1.990922,-2.06294 -0.07693,-0.4232 -0.314406,-1.11642 -0.527736,-1.54048 -0.288851,-0.57416 -0.439599,-1.47179 -0.590488,-3.51607 -0.18253,-2.47299 -0.161737,-2.9888 0.209768,-5.20382 0.22681,-1.3523 0.570341,-2.74112 0.763401,-3.08627 0.339494,-0.60692 0.338991,-0.63651 -0.01531,-0.90145 -0.556145,-0.41584 -0.257555,-0.80723 0.811515,-1.0637 1.045788,-0.25086 2.226042,-1.27831 2.919867,-2.54178 0.407401,-0.74188 1.341849,-1.1163 3.948809,-1.58218 2.28942,-0.40915 8.40464,-0.0653 11.59927,0.65215 1.0355,0.23256 1.18727,0.33565 1.69497,1.15134 0.3067,0.49272 0.82433,1.08581 1.15031,1.31792 0.67958,0.4839 2.60795,1.18755 3.25453,1.18755 0.42465,0 0.77216,0.4645 0.58007,0.77534 -0.0523,0.0847 -0.49217,0.10935 -0.97733,0.0546 -0.57626,-0.0649 -0.8821,-0.0241 -0.8821,0.11764 0,0.27008 0.66658,0.42775 1.55485,0.36777 0.85567,-0.0578 1.09713,0.38151 1.38386,2.51767 0.11356,0.84634 0.33392,2.33496 0.48962,3.30806 0.40597,2.53736 0.34911,4.58158 -0.17625,6.33726 z m -1.93356,-9.88019 c -1.8355,0.53295 -3.91715,0.19614 -4.90727,-0.794 -0.27286,-0.27286 -0.63609,-0.97766 -0.80719,-1.56624 -0.27799,-0.95622 -0.39847,-1.10979 -1.13182,-1.44272 -1.07773,-0.48928 -1.56437,-0.47532 -3.55698,0.10218 -1.53976,0.44621 -1.81554,0.46924 -3.59233,0.29994 -2.30473,-0.2196 -3.6248,-0.0413 -6.367232,0.85928 -1.807964,0.59381 -2.006985,0.71072 -2.653928,1.5591 -0.753633,0.9883 -1.937671,4.15791 -1.937671,5.18706 0,0.33516 0.138449,0.93621 0.307666,1.33564 0.169216,0.39944 0.529894,1.42946 0.801505,2.28895 0.271614,0.85948 0.616626,1.70149 0.766694,1.87109 0.150069,0.16962 0.272851,0.37326 0.272851,0.45254 0,0.0793 0.224135,0.43803 0.498076,0.79717 0.814027,1.06725 1.578132,1.30879 4.463389,1.41091 2.80917,0.0995 5.77781,0.36078 6.43536,0.5665 0.23161,0.0725 0.78857,0.38344 1.23768,0.69103 1.00229,0.68646 1.23167,0.69184 2.31946,0.0543 1.29529,-0.75908 1.90289,-1.56758 1.7581,-2.33938 -0.0961,-0.51258 4.9e-4,-0.78622 0.52304,-1.4805 0.92877,-1.23402 2.38861,-1.92605 4.0631,-1.92605 h 1.30368 l 0.12632,-1.4945 c 0.0695,-0.82197 0.12634,-2.44298 0.12634,-3.60222 0,-1.19443 0.0846,-2.16004 0.19533,-2.22844 0.10737,-0.0664 0.19535,-0.25764 0.19535,-0.42499 0,-0.22311 -0.11727,-0.27022 -0.43952,-0.17665 z m -3.50194,4.11746 c -0.41585,0.52866 -0.41704,0.54687 -0.0531,0.81295 0.59043,0.43175 0.1355,0.93293 -0.91038,1.00295 -1.16342,0.0779 -2.61553,-0.66344 -2.61553,-1.33527 0,-0.65083 1.04606,-1.30333 2.35075,-1.46636 1.67614,-0.20941 1.97792,0.0328 1.22831,0.98573 z m -3.7919,5.67925 c -1.0097,1.89897 -1.16604,2.03754 -2.29101,2.03065 -1.58333,-0.01 -1.89886,-0.41795 -1.42952,-1.84949 0.0353,-0.10738 0.1763,-0.61437 0.31352,-1.12652 0.13722,-0.51216 0.32658,-0.97883 0.42081,-1.03705 0.0941,-0.0583 0.17131,-0.30392 0.17131,-0.54597 0,-0.66324 1.05352,-1.36744 1.81726,-1.2147 1.55005,0.31002 1.97508,1.90472 0.99763,3.74308 z m -2.76199,1.1375 c -0.19856,0.19856 0.10033,0.3624 0.36399,0.19947 0.19914,-0.12308 0.1993,-0.16908 8.1e-4,-0.23524 -0.13571,-0.0453 -0.29986,-0.0292 -0.36477,0.0358 z m 2.41684,-9.08919 c -0.25319,0.23786 -0.76489,0.48188 -1.13712,0.54228 -0.94063,0.15265 -1.68793,-0.62553 -2.24109,-2.33364 l -0.42011,-1.29731 0.76251,-0.6889 c 0.55401,-0.50052 0.94213,-0.68889 1.41932,-0.68889 1.06189,0 1.57831,0.56267 1.84504,2.01025 0.31927,1.73272 0.29797,1.96156 -0.22855,2.45621 z m 7.59017,9.79321 c -0.16116,0 -0.29301,0.13186 -0.29301,0.293 0,0.16117 0.13185,0.29302 0.29301,0.29302 0.16115,0 0.29299,-0.13185 0.29299,-0.29302 0,-0.16114 -0.13184,-0.293 -0.29299,-0.293 z m -0.061,-12.84754 c -0.12758,-0.0426 -0.23196,0.0618 -0.23196,0.23196 0,0.1701 0.13917,0.30929 0.30927,0.30929 0.34497,0 0.28489,-0.42052 -0.0773,-0.54125 z m -3.47275,-11.66737 c -0.40889,0.34573 -0.76311,0.86635 -0.86385,1.2697 -0.0939,0.37601 -0.32173,1.11252 -0.50623,1.63667 l -0.33544,0.95298 -1.37633,-0.12791 c -0.75697,-0.0704 -1.87158,-0.25626 -2.47692,-0.41311 -0.78508,-0.20345 -2.32754,-0.29189 -5.38024,-0.30856 -3.819301,-0.0208 -4.414513,0.0198 -5.533518,0.37777 -1.226691,0.39245 -1.264809,0.39324 -1.758042,0.0372 -0.27729,-0.20015 -0.673345,-0.78889 -0.880125,-1.30832 -0.551471,-1.38531 -0.898128,-1.84521 -1.617346,-2.14572 -0.754903,-0.31542 -0.759558,-0.3338 -0.261612,-1.0331 0.460155,-0.64623 2.730528,-1.64652 4.40778,-1.94199 4.853363,-0.85499 5.118513,-0.87884 7.080253,-0.63685 4.20115,0.51825 7.68421,1.28635 8.97843,1.98001 0.40175,0.21533 0.84163,0.3915 0.97752,0.3915 0.47807,0 0.23113,0.69013 -0.45433,1.2697 z m -0.34269,-0.68369 c -0.1445,0 -0.41392,0.16708 -0.59873,0.37129 -0.45345,0.50104 -0.0297,0.76532 0.4831,0.30126 0.44116,-0.39925 0.48816,-0.67255 0.11566,-0.67255 z m -1.39764,1.75805 c -0.16278,0 -0.29301,0.17363 -0.29301,0.39067 0,0.38917 0.20815,0.5081 0.45579,0.26046 0.23791,-0.23791 0.13461,-0.65113 -0.16278,-0.65113 z m -1.17202,0.9474 c -0.10206,0 -0.21707,0.0945 -0.25558,0.20998 -0.0385,0.11554 0.0765,0.20998 0.25558,0.20998 0.17905,0 0.29406,-0.0945 0.25556,-0.20998 -0.0385,-0.11553 -0.1535,-0.20998 -0.25556,-0.20998 z m -1.53829,-4.26813 c -0.14772,0 -0.54328,-0.0549 -0.87902,-0.12209 -0.80498,-0.161 -0.8014,0.21262 0.004,0.49363 0.83426,0.29084 1.14286,0.26962 1.14286,-0.0787 0,-0.16114 -0.12085,-0.293 -0.26859,-0.293 z m -12.672556,4.94941 c -0.134294,0.0542 -0.02441,0.0985 0.244173,0.0985 0.268589,0 0.378467,-0.0444 0.244173,-0.0985 -0.134295,-0.0542 -0.35405,-0.0542 -0.488346,0 z m 16.614266,33.19902 c -0.2447,0.33591 -0.5162,0.50473 -0.71525,0.44469 -0.22622,-0.0681 -0.4221,0.12259 -0.66435,0.64707 -0.60455,1.309 -3.26302,2.29199 -6.00494,2.22041 -0.48346,-0.0126 -1.62618,-0.0345 -2.53939,-0.0487 -3.14017,-0.0487 -5.357782,-0.73241 -7.766816,-2.39427 -1.442849,-0.99536 -2.64187,-2.3486 -2.541716,-2.86865 0.03075,-0.15966 0.401588,-0.35931 0.834429,-0.44925 0.934378,-0.19413 2.31335,-1.43252 2.177013,-1.95508 -0.118232,-0.45316 0.09868,-0.43156 1.199263,0.11938 2.417157,1.21011 3.086567,1.32312 8.199277,1.38426 5.13637,0.0615 5.32564,0.10131 5.59564,1.17708 0.12333,0.49137 0.96386,0.88416 1.89208,0.88416 0.72939,0 0.806,0.192 0.33476,0.83889 z m -23.646684,-9.17958 c -1.057683,0.61985 -1.592797,1.21114 -1.444896,1.59657 0.06387,0.16642 0.03665,0.49933 -0.06046,0.73979 -0.09712,0.24046 -0.233765,0.70075 -0.303663,1.02287 l -0.127084,0.58569 -0.391071,-0.53685 c -0.215089,-0.29527 -0.503737,-0.53685 -0.641443,-0.53685 -0.524391,0 -1.20027,-0.77589 -1.554325,-1.78432 -0.202387,-0.57645 -0.488223,-1.18808 -0.63519,-1.35921 -0.39854,-0.46404 -1.113812,-2.39524 -1.613841,-4.3573 -0.743697,-2.91821 -0.588853,-9.71916 0.281899,-12.38133 0.436349,-1.33406 1.629843,-2.85879 2.2987,-2.93668 0.415774,-0.0484 0.603014,0.0616 0.856314,0.50292 0.235286,0.40995 0.796326,0.77511 2.045936,1.33164 0.946964,0.42175 1.723354,0.82262 1.725311,0.89084 0.002,0.0683 -0.223597,0.27286 -0.501233,0.45479 -0.48047,0.31481 -0.488677,0.34855 -0.170323,0.70033 0.315739,0.34889 0.315717,0.4091 -4.14e-4,1.0753 -0.509794,1.07431 -0.845866,3.8389 -0.768615,6.32281 0.08825,2.83761 0.295368,3.93181 1.147268,6.06108 0.378154,0.94517 0.687553,1.80911 0.687553,1.91987 0,0.11071 -0.373692,0.42039 -0.830426,0.68804 z"
       id="path2" /><path
       style="fill:#333333;fill-opacity:1;stroke-width:0.999999"
       d="m 196.56916,148.53383 c -0.29544,0.11962 -1.32829,0.24694 -2.29522,0.28301 -0.96692,0.0361 -1.96314,0.11542 -2.21382,0.17624 -0.25068,0.0609 -1.2176,0.15228 -2.14871,0.20315 -0.93113,0.051 -2.96752,0.26031 -4.52534,0.46536 -1.55782,0.20507 -3.97512,0.46382 -5.3718,0.57504 -1.39665,0.1112 -3.19866,0.34746 -4.00443,0.52506 -2.35413,0.51885 -5.86013,0.38479 -5.86013,-0.22406 0,-0.18672 -0.22283,-0.2775 -0.68106,-0.2775 -0.59372,0 -0.71769,0.0877 -0.96673,0.68369 -0.15711,0.37601 -0.40433,0.68368 -0.54938,0.68368 -0.14505,0 -0.52722,-0.50092 -0.84927,-1.11314 -0.47433,-0.9017 -0.70945,-1.14524 -1.23787,-1.28217 -0.82087,-0.21271 -0.95349,-0.0574 -0.84177,0.98594 0.0799,0.74594 0.17766,0.884 0.89866,1.26897 0.44496,0.23759 1.02876,0.4771 1.29735,0.53227 0.26858,0.0553 0.48835,0.2313 0.48835,0.39139 0,0.19537 0.24088,0.31103 0.73251,0.35172 0.4029,0.0334 0.73252,0.13068 0.73252,0.2163 0,0.20861 -2.25815,1.0184 -3.16378,1.13454 -0.44435,0.057 -0.96474,-0.0284 -1.35301,-0.22214 -0.34701,-0.17312 -0.77882,-0.26781 -0.95956,-0.21045 -0.55588,0.17642 -0.83979,-0.39841 -0.71542,-1.44854 0.0618,-0.52308 0.0615,-1.44677 -8.7e-4,-2.05264 l -0.11368,-1.10157 -2.85338,0.0539 -2.85339,0.0539 -0.0977,0.93267 c -0.0537,0.51294 -0.18557,0.93359 -0.29301,0.93474 -0.10749,8.6e-4 -0.81066,-0.34515 -1.5627,-0.76958 -0.75205,-0.42443 -2.04116,-1.04795 -2.86469,-1.3856 -2.17763,-0.89285 -2.16576,-1.11644 0.10428,-1.96579 0.605,-0.22636 1.10001,-0.48405 1.10001,-0.57264 0,-0.19465 2.7949,-1.95957 3.10314,-1.95957 0.13025,0 0.2176,0.38364 0.2176,0.9558 0,0.69135 0.0855,0.98859 0.30899,1.07435 0.49948,0.19167 5.23092,0.1298 5.55115,-0.0726 0.23197,-0.1466 0.29602,-0.6649 0.30746,-2.48757 0.0141,-2.23959 0.0275,-2.30842 0.48836,-2.52398 0.26062,-0.12184 1.24024,-0.26582 2.1769,-0.31984 1.54556,-0.0891 1.71384,-0.0642 1.82004,0.27043 0.0643,0.20277 0.23355,0.36868 0.37595,0.36868 0.30609,0 0.57636,0.5937 0.356,0.78197 -0.0841,0.0717 -0.71073,0.22918 -1.39252,0.34964 -1.72407,0.30461 -1.81527,0.41283 -1.74724,2.07315 l 0.0568,1.38569 0.73476,0.0609 c 0.64913,0.0537 0.77434,-0.0111 1.07436,-0.5518 0.62652,-1.13012 0.73331,-1.2257 1.20285,-1.07668 0.38272,0.12147 0.4259,0.23078 0.31811,0.8053 -0.12222,0.65135 -0.11121,0.66475 0.54664,0.66475 0.53331,0 0.69407,-0.0903 0.78174,-0.43952 0.26893,-1.07099 0.47448,-1.15448 2.27812,-0.92529 2.57684,0.32746 6.32929,0.74804 8.69045,0.97405 1.18181,0.11306 2.93984,0.33148 3.90677,0.48522 0.96692,0.15379 3.07656,0.37588 4.68811,0.49359 1.61154,0.11776 3.32563,0.29343 3.80909,0.39049 0.48346,0.0971 1.39024,0.1803 2.01505,0.18498 1.24068,0.01 1.89171,0.25153 1.89171,0.70389 0,0.16003 -0.24173,0.3888 -0.53719,0.50838 z m -6.14093,-0.75119 c -0.15582,0.0623 -0.10947,0.1086 0.11801,0.11801 0.20591,0.009 0.32128,-0.0377 0.25637,-0.10255 -0.0649,-0.0649 -0.23338,-0.0718 -0.37439,-0.0153 z m -1.17202,0 c -0.15583,0.0623 -0.1096,0.1086 0.11801,0.11801 0.20591,0.009 0.32128,-0.0377 0.25638,-0.10255 -0.0649,-0.0649 -0.23339,-0.0718 -0.37439,-0.0153 z m -0.78136,-0.19534 c -0.15583,0.0624 -0.10959,0.10861 0.11801,0.11801 0.20593,0.009 0.32129,-0.0376 0.25639,-0.10255 -0.065,-0.0649 -0.23339,-0.0717 -0.3744,-0.0155 z m -15.04102,2.73473 c -0.15584,0.0623 -0.1096,0.10861 0.11801,0.11801 0.20592,0.009 0.3213,-0.0377 0.25638,-0.10267 -0.0649,-0.0649 -0.23337,-0.0717 -0.37439,-0.0153 z m -9.62107,2.4775 c -0.0474,0 -0.14047,0.088 -0.20687,0.19533 -0.0664,0.10737 -0.0276,0.19534 0.0862,0.19534 0.1138,0 0.20686,-0.088 0.20686,-0.19534 0,-0.10737 -0.0387,-0.19533 -0.0862,-0.19533 z m 25.69439,6.53208 c -0.097,0.06 -0.94081,-0.24253 -1.87515,-0.67216 -0.93435,-0.42963 -1.84389,-0.78048 -2.0212,-0.77967 -0.17732,8.1e-4 -0.69947,0.38543 -1.16034,0.85474 -0.46086,0.4693 -1.55964,1.34298 -2.44172,1.94149 -1.64938,1.11915 -5.16804,2.67177 -6.05497,2.67177 -0.56152,0 -0.64322,0.1822 -1.2759,2.84577 -0.39012,1.64242 -0.71313,2.42835 -0.99805,2.42835 -0.22538,0 -0.30637,-0.25296 -0.59412,-1.85571 -0.13502,-0.75205 -0.3338,-1.55676 -0.44176,-1.78825 -0.10799,-0.23148 -0.14131,-0.5098 -0.0742,-0.61845 0.26738,-0.43263 -0.23749,-1.15722 -0.8921,-1.28033 -1.41253,-0.26564 -4.08298,-1.77533 -5.65912,-3.19927 l -0.72798,-0.65769 -1.72137,0.62017 c -2.16558,0.78018 -3.61595,1.1876 -3.75014,1.05341 -0.0572,-0.0572 0.83751,-1.00386 1.988,-2.10392 1.1505,-1.10006 2.09181,-2.15119 2.09181,-2.33585 0,-0.26746 0.17796,-0.33574 0.87505,-0.33574 0.83386,0 0.89467,0.0392 1.29187,0.83018 0.48229,0.96056 2.14822,2.6859 2.59342,2.6859 0.16678,0 0.46667,0.17544 0.66642,0.38985 0.24355,0.26143 1.00056,0.52294 2.29804,0.79388 2.60725,0.54446 4.18649,0.39754 6.69409,-0.62275 3.16418,-1.28746 4.748,-2.37245 6.12436,-4.19542 0.87924,-1.16454 1.32255,-1.3016 1.80894,-0.55929 0.17816,0.27191 1.02333,1.1626 1.87816,1.9793 1.55062,1.48144 1.71105,1.70379 1.37791,1.90969 z m -2.02507,-23.74483 c -0.77678,1.00797 -1.49655,1.94779 -1.59945,2.08845 -0.12776,0.17461 -0.0813,0.37269 0.14649,0.6244 0.40948,0.45245 0.42662,0.89658 0.0468,1.21179 -0.23573,0.19564 -0.48798,0.0658 -1.41619,-0.72885 -0.80623,-0.69024 -1.77212,-1.23582 -3.37576,-1.90678 -4.5549,-1.90578 -8.04545,-2.09899 -11.7405,-0.64984 -1.43355,0.56222 -1.82842,0.86873 -3.67292,2.85109 -0.22493,0.24173 -0.52213,0.43949 -0.66048,0.43949 -0.13832,0 -0.65273,-0.41752 -1.14311,-0.92784 -1.00583,-1.04671 -4.04852,-4.83177 -4.19868,-5.2231 -0.24516,-0.63885 0.4029,-0.39124 1.91705,0.73248 3.50998,2.60492 3.42156,2.57437 4.8483,1.67472 0.865,-0.54543 4.88608,-2.41634 5.55332,-2.5838 0.37811,-0.0949 0.50723,-0.25781 0.52272,-0.6595 0.0595,-1.54465 0.12471,-2.22553 0.34023,-3.55707 0.13006,-0.80349 0.32153,-1.54593 0.42546,-1.64986 0.29114,-0.29114 0.73437,0.43779 0.94131,1.54807 0.10007,0.53718 0.30365,1.63596 0.4523,2.44172 0.24507,1.32845 0.31541,1.47017 0.75441,1.52013 2.50879,0.28548 5.74348,1.35019 7.78304,2.56182 l 1.0481,0.62264 1.00295,-0.70094 c 0.55162,-0.38551 1.35456,-0.953 1.7843,-1.26109 0.95429,-0.68413 1.66198,-0.9226 1.6565,-0.55817 -0.002,0.14153 -0.63942,1.08206 -1.41619,2.09004 z m -14.44137,-1.73503 c -0.31555,0 -0.37198,0.0578 -0.21236,0.21738 0.11962,0.11962 0.31294,0.15833 0.42975,0.0862 0.32694,-0.20207 0.25426,-0.30354 -0.21739,-0.30354 z"
       id="path1" /><path
       style="fill:#333333;fill-opacity:1;stroke-width:0.999999"
       d="m 55.837004,149.04861 c -0.06442,0.0644 -0.111232,0.45271 -0.103933,0.86276 0.0078,0.41003 -0.07869,1.18504 -0.191009,1.72222 -0.331281,1.58399 -0.32404,1.57396 -0.813822,1.12803 -1.390342,-1.2659 -3.53157,-1.52626 -11.666335,-1.41864 -1.711757,0.0228 -9.574633,0.19417 -11.134265,0.24287 -1.935871,0.0605 -3.052853,-0.22548 -3.933472,-1.00694 -0.788495,-0.69974 -0.833413,-0.79848 -0.905041,-1.98951 -0.0626,-1.04105 0.0045,-1.40207 0.394008,-2.13226 0.714202,-1.3375 1.606177,-1.76345 3.663148,-1.74929 7.809491,0.0537 17.835659,-0.14875 19.045452,-0.38463 1.464219,-0.2855 2.902337,-0.82589 3.115419,-1.17066 0.237992,-0.38508 0.700266,-0.21958 0.907245,0.32482 0.112147,0.29496 0.400883,0.80039 0.64164,1.12319 0.573814,0.76931 1.312083,4.11693 0.980965,4.44804 z m -3.203545,0.14326 c -0.107434,0 -0.195338,0.088 -0.195338,0.19533 0,0.1075 0.0879,0.19534 0.195338,0.19534 0.107434,0 0.195337,-0.0878 0.195337,-0.19534 0,-0.10737 -0.0879,-0.19533 -0.195337,-0.19533 z m -2.588224,-3.4501 c -0.134294,0.0542 -0.02443,0.0985 0.244165,0.0985 0.268588,0 0.378469,-0.0444 0.244175,-0.0985 -0.134294,-0.0542 -0.354046,-0.0542 -0.48834,0 z M 35.88695,145.54042 c -0.190061,0.0496 -0.08182,0.0933 0.240452,0.0972 0.32231,0.004 0.47781,-0.0365 0.34556,-0.0901 -0.132252,-0.0536 -0.395953,-0.0568 -0.586012,-0.006 z m 18.074808,20.60678 c -0.398614,0.39862 -1.177877,0.25416 -2.500324,-0.4635 -0.698336,-0.37896 -1.874804,-0.95668 -2.614376,-1.28379 l -1.344662,-0.59478 -1.487737,0.69792 c -1.954401,0.91686 -4.055547,1.43832 -6.463752,1.60417 -1.07716,0.0742 -1.958469,0.19305 -1.958469,0.26414 0,0.0711 -0.307662,0.46513 -0.683686,0.87564 -0.666949,0.72815 -0.683677,0.78625 -0.683677,2.37433 0,1.52345 -0.03434,1.65976 -0.535185,2.12417 -0.676365,0.62716 -0.797035,0.62191 -0.943179,-0.0409 -0.06512,-0.29544 -0.245477,-1.00004 -0.400752,-1.5658 -0.155265,-0.56571 -0.336439,-1.73054 -0.402604,-2.58849 l -0.120286,-1.55988 -0.801209,-0.19925 c -1.098479,-0.27314 -4.275239,-1.51068 -4.728251,-1.84193 -0.492443,-0.3601 -0.351039,-0.45986 1.013998,-0.71544 1.245989,-0.2333 4.06862,-0.10428 5.176941,0.23663 1.099862,0.33832 3.869095,0.37271 5.396982,0.067 2.086521,-0.41743 5.377046,-1.80707 6.48348,-2.73809 0.342847,-0.28848 1.280287,-1.51935 2.083182,-2.73525 0.802904,-1.2159 1.713036,-2.39104 2.022513,-2.61141 0.698336,-0.49727 1.621761,-0.50469 2.685801,-0.0215 0.692189,0.31429 0.798357,0.43815 0.699501,0.81619 -0.146544,0.56037 -0.983235,1.81451 -2.436498,3.65213 -0.621563,0.78595 -1.130882,1.57708 -1.131831,1.75805 -0.0017,0.31216 3.444573,3.74746 3.75938,3.74746 0.231141,0 0.175854,0.48112 -0.08529,0.74227 z M 53.48279,140.47574 c -0.380128,0.38013 -0.711254,0.51194 -1.286147,0.51194 -0.701362,0 -0.935824,-0.15216 -2.49183,-1.6169 -1.909954,-1.79796 -4.407461,-3.55827 -6.314599,-4.45073 -1.102679,-0.516 -1.719486,-0.63686 -5.040962,-0.98772 -2.621533,-0.27691 -4.407323,-0.36491 -5.811106,-0.28633 l -2.026558,0.11343 0.147081,-0.63448 c 0.0809,-0.34896 0.164756,-0.83825 0.186358,-1.08728 0.04445,-0.51222 0.961794,-1.20432 1.598889,-1.20629 0.46576,-0.002 0.65575,-0.34266 0.65575,-1.17776 0,-0.30717 0.09148,-0.61504 0.203285,-0.68414 0.1118,-0.0692 0.150847,-0.29084 0.08678,-0.49275 -0.06408,-0.2019 0.02817,-0.94426 0.205118,-1.64965 0.176914,-0.70539 0.327527,-1.67143 0.334709,-2.14676 0.01452,-0.96128 0.306791,-1.21264 0.991146,-0.85243 0.608905,0.32048 0.661628,0.45607 0.679955,1.74868 0.01644,1.1585 0.30128,2.28869 0.752147,2.98425 0.150595,0.23233 0.196928,0.71795 0.125798,1.31853 l -0.112604,0.95076 0.662062,7.3e-4 c 0.950769,7.4e-4 5.337468,0.88923 6.717534,1.36006 0.644613,0.2199 1.589626,0.62452 2.100022,0.89915 l 0.927992,0.49931 1.379891,-1.23314 c 0.758935,-0.67821 1.557204,-1.51888 1.773921,-1.86812 0.423323,-0.68218 1.076161,-1.22071 1.479816,-1.22071 0.442764,0 0.267441,0.82771 -0.515666,2.43442 -0.42087,0.86349 -0.86558,2.05346 -0.98825,2.64437 l -0.223047,1.07436 0.768022,0.68367 c 0.422408,0.37603 1.182726,1.32097 1.689585,2.09989 0.595995,0.91587 1.049287,1.4162 1.28307,1.4162 0.586386,0 0.608697,0.30859 0.06191,0.85542 z m -21.481742,14.96694 c -0.309246,0.85702 -0.33064,1.76621 -0.05831,2.47784 0.24723,0.64608 -0.123728,2.79858 -0.481288,2.79271 -0.119618,-0.002 -3.349709,0.0443 -7.177999,0.10267 -6.379152,0.0974 -6.970955,0.079 -7.085595,-0.21973 -0.147163,-0.3835 -0.175439,-0.35184 0.567793,-0.63574 0.544795,-0.20811 0.520749,-0.21712 -0.341842,-0.12815 l -0.927854,0.0957 -0.0015,-1.3148 c -7.39e-4,-0.72313 -0.05641,-1.89744 -0.123701,-2.60957 l -0.122314,-1.29481 0.709713,-0.23421 c 0.645358,-0.21299 0.709529,-0.29928 0.707684,-0.95161 -0.01089,-3.8385 0.218524,-14.36488 0.31648,-14.52338 0.06962,-0.11269 0.417462,-0.1564 0.77819,-0.0978 0.537286,0.0872 1.029397,-0.0985 2.791102,-1.05284 1.176346,-0.63726 2.194457,-1.15867 2.262481,-1.15867 0.068,0 0.64696,-0.36903 1.286521,-0.82005 0.855842,-0.60357 1.220401,-0.76251 1.380851,-0.60206 0.160452,0.16044 0.108782,0.28621 -0.195697,0.47637 -0.497691,0.31081 -0.555617,0.63697 -0.07183,0.40465 0.188011,-0.0903 0.693448,-0.15933 1.123189,-0.15339 0.743564,0.01 0.779666,0.0392 0.746385,0.59681 -0.01926,0.32231 -0.04939,2.18092 -0.06703,4.13027 l -0.03204,3.54425 -0.689323,0.65552 c -1.002871,0.95368 -1.413594,1.97725 -1.418672,3.53544 l -0.0045,1.31723 1.172027,1.19037 c 0.868054,0.88164 1.172028,1.33174 1.172028,1.73542 0,0.76921 0.324166,0.9565 1.910645,1.10395 1.780285,0.16546 2.255556,0.58075 1.874187,1.63766 z m -1.749757,-0.46745 c -0.479169,-0.18387 -0.863048,-0.14042 -0.863048,0.0977 0,0.11888 0.129038,0.16673 0.286758,0.10614 0.157712,-0.0605 0.338701,-0.026 0.402202,0.0768 0.145678,0.23572 0.483067,0.24434 0.483067,0.0124 0,-0.096 -0.139042,-0.22779 -0.308979,-0.293 z m -10.285824,4.82206 c -0.242986,0.0468 -0.09018,0.0868 0.339566,0.0889 0.429741,0.002 0.628546,-0.036 0.441789,-0.085 -0.186764,-0.0489 -0.538373,-0.0507 -0.781355,-0.004 z m -2.602036,-4.35461 c -0.167495,0 -0.24932,0.0893 -0.18184,0.19852 0.06748,0.10922 0.204528,0.14795 0.304536,0.0862 0.270943,-0.16745 0.220421,-0.28465 -0.122699,-0.28465 z"
       id="path3" /><path
       style="fill:#333333;fill-opacity:1"
       d="m 91.993461,30.010802 c -2.365085,-0.21878 -3.451874,-1.244564 -3.578524,-3.377652 -0.142168,-2.394426 1.103517,-3.979469 3.97907,-5.063078 0.499386,-0.188186 1.780164,-0.5686 2.846173,-0.845364 l 1.938197,-0.503207 v -1.460785 c 0,-1.375727 -0.01169,-1.478172 -0.200773,-1.759391 -0.114716,-0.170615 -0.331306,-0.343564 -0.50531,-0.403495 -0.337305,-0.116176 -1.633702,-0.14507 -2.650922,-0.05908 l -0.659246,0.05573 -0.320666,1.548082 c -0.176366,0.851445 -0.359782,1.688048 -0.407591,1.859117 l -0.08692,0.311036 -1.28512,-0.108539 c -0.706816,-0.0597 -1.301191,-0.124609 -1.320832,-0.14425 -0.01964,-0.01964 -0.137835,-0.525998 -0.262652,-1.125236 -0.167315,-0.803265 -0.230377,-1.385496 -0.240019,-2.21601 l -0.01308,-1.126485 1.581838,-0.611375 c 3.171701,-1.225851 4.960884,-1.681759 6.634935,-1.690671 2.282074,-0.01215 3.233871,0.788764 3.515801,2.958459 0.045,0.346433 0.0831,2.816063 0.0846,5.488066 0.003,5.42109 -0.003,5.364239 0.56795,5.602685 0.16936,0.07076 0.41974,0.128657 0.5564,0.128657 0.23947,0 0.25526,0.02782 0.43521,0.766723 0.1027,0.421697 0.17065,0.79273 0.151,0.824517 -0.0196,0.03179 -0.50092,0.187985 -1.06951,0.347106 -1.66293,0.465376 -2.3503,0.395236 -3.034914,-0.309688 l -0.295652,-0.304423 -0.81398,0.350926 c -1.917942,0.82687 -3.429482,1.063364 -5.545421,0.867632 z m 3.28397,-2.511401 c 0.436304,-0.109548 2.051629,-0.750084 2.113126,-0.837933 0.03629,-0.05184 -0.115776,-3.696103 -0.155905,-3.736232 -0.04328,-0.04328 -2.663426,0.744701 -3.430224,1.031596 -0.467534,0.174928 -0.483725,0.192542 -0.666173,0.724762 -0.621012,1.811551 -0.04602,3.164629 1.271904,2.993062 0.193336,-0.02517 0.583608,-0.104033 0.867272,-0.175255 z m 15.630909,2.509893 c -2.37618,-0.364611 -4.2559,-2.123008 -5.15148,-4.818974 -0.46556,-1.401496 -0.60887,-2.478691 -0.55046,-4.137545 0.0528,-1.499759 0.20414,-2.352585 0.58871,-3.31764 1.1554,-2.899395 3.69667,-4.297718 8.25622,-4.542949 l 1.01061,-0.05435 0.56414,0.683945 c 1.07641,1.305001 2.04632,2.998495 2.60075,4.541011 l 0.28081,0.781268 -0.70371,0.471021 c -0.38704,0.259061 -0.73332,0.47102 -0.76951,0.47102 -0.0362,0 -0.43548,-0.283397 -0.88732,-0.629771 -0.88084,-0.675246 -2.56644,-2.326393 -3.27906,-3.212024 l -0.4363,-0.542233 -0.34905,0.192746 c -0.54829,0.30276 -1.56392,1.360865 -1.98192,2.064805 -1.86894,3.147381 -1.11542,7.596554 1.5048,8.885215 1.38172,0.679544 2.90733,0.481776 5.58746,-0.724316 0.76262,-0.343185 1.07653,-0.447987 1.07653,-0.359403 0,0.06878 0.11279,0.475771 0.25064,0.904433 l 0.25063,0.779386 -1.44748,0.816663 c -1.67254,0.943639 -2.53497,1.334474 -3.47551,1.575023 -0.81012,0.207193 -2.18731,0.288093 -2.9395,0.172674 z m 35.43886,0.0023 c -2.61937,-0.406866 -4.64498,-2.448094 -5.40197,-5.443631 -0.29335,-1.16083 -0.38221,-2.067403 -0.32672,-3.333242 0.0896,-2.044952 0.59708,-3.647792 1.60501,-5.069677 0.57174,-0.806556 1.1459,-1.27018 2.25103,-1.817657 1.55822,-0.771939 3.05262,-1.137717 5.29422,-1.295845 l 1.14818,-0.081 0.79092,0.814176 c 0.95473,0.982801 1.77811,2.063923 2.51994,3.30876 0.93854,1.574935 1.83869,3.878927 1.57833,4.039839 -0.0584,0.03608 -0.5496,0.114642 -1.09159,0.174572 -2.45496,0.271451 -8.89481,1.165838 -9.92722,1.378724 -0.30072,0.06201 -0.31185,0.260621 -0.0681,1.213809 0.35324,1.38115 1.10872,2.385027 2.17497,2.890083 0.57279,0.271318 0.63714,0.281933 1.69391,0.279442 0.99902,-0.0024 1.17012,-0.02744 1.88941,-0.277032 0.43501,-0.150944 1.32004,-0.517037 1.96674,-0.81354 0.6467,-0.296503 1.18736,-0.527555 1.20146,-0.513451 0.0352,0.03515 0.65499,1.824985 0.71261,2.057685 0.041,0.165479 -0.0975,0.260458 -1.18231,0.810891 -1.5843,0.803886 -2.57958,1.203467 -3.64136,1.461906 -0.97793,0.238033 -2.41557,0.335086 -3.18749,0.215184 z m 1.45002,-10.455951 c 1.69653,-0.0949 3.06969,-0.225075 3.14252,-0.29791 0.0234,-0.02342 -0.17869,-0.375154 -0.44915,-0.781625 -0.77199,-1.160225 -1.79699,-2.103299 -2.59018,-2.383153 -0.3371,-0.118938 -0.3399,-0.118004 -0.91984,0.307851 -0.31994,0.234933 -0.76484,0.656019 -0.98868,0.935747 -0.39292,0.49103 -1.18259,1.956009 -1.18259,2.193906 0,0.145345 0.72984,0.151497 2.98792,0.02518 z m -11.44211,10.105979 c -2.34896,-0.361542 -4.11773,-1.587032 -7.24233,-5.017837 -1.18082,-1.296541 -1.82566,-1.83342 -2.20211,-1.83342 h -0.20464 v 1.478008 c 0,1.716072 0.10118,2.200993 0.54685,2.620989 0.39926,0.37627 0.74862,0.474453 1.90011,0.53401 l 0.99694,0.05156 -0.0449,0.228202 c -0.0247,0.125511 -0.0928,0.557753 -0.15129,0.960537 -0.0997,0.686197 -0.11812,0.728632 -0.29292,0.673567 -0.31803,-0.100189 -6.97212,-0.15133 -8.2715,-0.06357 -0.67668,0.0457 -1.24349,0.07217 -1.25958,0.05881 -0.0161,-0.01336 -0.0359,-0.432783 -0.0439,-0.932056 l -0.0147,-0.90777 0.64313,-0.06449 c 0.93619,-0.09388 1.33192,-0.223973 1.65054,-0.54259 0.5073,-0.507301 0.50444,-0.458264 0.43005,-7.390701 -0.0373,-3.480045 -0.092,-7.69169 -0.12155,-9.359211 l -0.0537,-3.0318576 -1.60434,-0.2160422 -1.60434,-0.2160422 0.0566,-0.7066969 c 0.0311,-0.3886833 0.061,-0.7116229 0.0664,-0.7176434 0.005,-0.00602 0.64263,-0.056756 1.41597,-0.1127465 2.24392,-0.1624599 4.03489,-0.4593482 5.63539,-0.9341778 l 0.18684,-0.05543 -0.0462,8.1933176 -0.0462,8.193317 0.6063,-0.04846 c 0.60113,-0.04805 0.60988,-0.05247 1.02564,-0.518394 0.23063,-0.258463 0.65895,-0.825847 0.95182,-1.260852 0.56422,-0.838054 1.57282,-2.789647 1.57282,-3.043326 0,-0.11991 -0.20708,-0.199743 -1.01062,-0.389611 -1.15373,-0.272614 -1.07423,-0.155876 -0.9094,-1.335484 l 0.10144,-0.725944 0.71156,0.06685 c 1.00571,0.09448 6.553,0.07045 7.35781,-0.03186 l 0.67042,-0.08523 0.0546,0.522291 c 0.03,0.287259 0.0546,0.692654 0.0546,0.900877 0,0.369278 -0.008,0.379915 -0.32955,0.432654 -0.97674,0.16025 -1.32302,0.263124 -1.9617,0.582799 -0.92314,0.462042 -1.62235,1.160759 -2.84437,2.842354 -0.52687,0.725009 -1.13112,1.522462 -1.34279,1.772118 l -0.38484,0.453919 0.55215,0.29306 c 0.75477,0.40061 1.57069,1.194404 2.58812,2.517966 1.17298,1.52591 2.36266,2.69797 3.16083,3.114 0.65945,0.343732 1.52517,0.589526 2.08401,0.59169 0.27838,0.0011 0.32753,0.02747 0.28883,0.155088 -0.11158,0.367922 -0.22115,0.99037 -0.27764,1.577251 -0.0571,0.593171 -0.0753,0.635249 -0.29166,0.676041 -0.48442,0.09131 -2.2739,0.123931 -2.75306,0.05018 z M 70.68258,29.5726 c -2.442002,-0.08629 -3.029258,-0.287 -3.43466,-1.173896 -0.112468,-0.246045 -0.243243,-0.724177 -0.290612,-1.062514 -0.04737,-0.338338 -0.109575,-2.8671 -0.138235,-5.619472 -0.02866,-2.752372 -0.06474,-5.016945 -0.08018,-5.032384 -0.01544,-0.01544 -0.570137,0.05159 -1.232659,0.148946 -1.687777,0.248026 -1.594307,0.264844 -1.336116,-0.24041 0.393113,-0.769286 1.126989,-1.729203 1.918558,-2.509492 l 0.785049,-0.773863 0.04231,-1.511015 c 0.02327,-0.831058 0.06045,-1.600047 0.08263,-1.708865 0.03038,-0.1491264 0.272541,-0.3148638 0.983314,-0.6729957 0.518652,-0.2613297 1.397322,-0.7329925 1.952599,-1.0481396 0.555277,-0.315147 1.011866,-0.5659425 1.014642,-0.5573233 0.0062,0.019098 -0.109591,3.4469206 -0.158538,4.6952766 l -0.03532,0.90077 h 2.314397 2.314398 v 0.907176 0.907177 l -1.869411,0.306346 c -1.963054,0.321691 -2.429966,0.47343 -2.73307,0.888206 -0.191,0.26137 -0.163915,-0.123986 -0.412366,5.866966 -0.140357,3.384462 -0.09033,3.854018 0.46594,4.373496 0.432069,0.403492 1.85039,0.723539 3.206432,0.723539 0.303356,0 0.551555,0.03709 0.551555,0.08243 0,0.04534 -0.05567,0.332043 -0.123707,0.63713 -0.06804,0.305086 -0.149976,0.782092 -0.182083,1.060012 l -0.05838,0.505309 -0.894446,-0.01515 c -0.491945,-0.0083 -1.685365,-0.0431 -2.652044,-0.07726 z m 11.77591,0 c -2.442003,-0.08629 -3.029259,-0.287 -3.43466,-1.173896 -0.112468,-0.246045 -0.243243,-0.724177 -0.290612,-1.062514 -0.04737,-0.338338 -0.109575,-2.8671 -0.138235,-5.619472 -0.02866,-2.752372 -0.06474,-5.016945 -0.08018,-5.032384 -0.01544,-0.01544 -0.570137,0.05159 -1.232659,0.148946 -1.687777,0.248026 -1.594307,0.264844 -1.336116,-0.24041 0.393113,-0.769286 1.126989,-1.729203 1.918557,-2.509492 l 0.78505,-0.773863 0.04232,-1.511015 c 0.02327,-0.831058 0.06045,-1.600047 0.08262,-1.708865 0.03038,-0.1491264 0.272542,-0.3148638 0.983314,-0.6729957 0.518653,-0.2613297 1.397323,-0.7329925 1.952599,-1.0481396 0.555277,-0.315147 1.011866,-0.5659425 1.014643,-0.5573233 0.0062,0.019098 -0.109591,3.4469206 -0.158538,4.6952766 l -0.03532,0.90077 h 2.314397 2.314397 v 0.907176 0.907177 l -1.86941,0.306346 c -1.963054,0.321691 -2.429966,0.47343 -2.73307,0.888206 -0.191,0.26137 -0.163915,-0.123986 -0.412366,5.866966 -0.140357,3.384462 -0.09033,3.854018 0.46594,4.373496 0.432069,0.403492 1.85039,0.723539 3.206432,0.723539 0.303355,0 0.551555,0.03709 0.551555,0.08243 0,0.04534 -0.05567,0.332043 -0.123707,0.63713 -0.06804,0.305086 -0.149977,0.782092 -0.182083,1.060012 l -0.05838,0.505309 -0.894445,-0.01515 c -0.491945,-0.0083 -1.685365,-0.0431 -2.652043,-0.07726 z m 75.0625,-0.75393 c -0.11006,-1.301991 -0.1361,-1.231128 0.47798,-1.300603 1.27121,-0.143821 2.00343,-0.544354 2.19105,-1.198532 0.16813,-0.58624 0.0138,-10.06981 -0.16568,-10.180732 -0.0498,-0.0308 -0.75505,-0.149583 -1.56714,-0.263963 -0.81209,-0.11438 -1.50131,-0.231947 -1.53159,-0.261261 -0.0303,-0.02931 -0.0808,-0.353567 -0.11226,-0.720562 l -0.0572,-0.667264 1.43046,-0.107927 c 2.35652,-0.177797 4.73648,-0.536075 5.61126,-0.844717 0.20192,-0.07124 0.40169,-0.129526 0.44395,-0.129526 0.0423,0 0.0768,0.375686 0.0768,0.834859 0,0.459173 0.0145,0.834859 0.0323,0.834859 0.0178,0 0.46265,-0.216029 0.98865,-0.480065 1.00176,-0.502853 2.3111,-1.044812 3.51432,-1.454642 l 0.71249,-0.24268 0.31463,0.539444 c 0.63693,1.09203 1.19288,2.646101 1.51403,4.232239 0.29646,1.464131 0.30555,1.404927 -0.24374,1.5869 -0.25376,0.08407 -0.71342,0.265739 -1.02148,0.40372 l -0.56011,0.250874 -0.5697,-0.500166 c -0.51875,-0.455434 -1.12342,-1.117351 -1.82528,-1.998079 l -0.26364,-0.330828 -0.6591,0.238051 c -0.3625,0.130928 -0.96705,0.392421 -1.34342,0.581097 l -0.68433,0.343046 0.0252,4.149709 c 0.0249,4.090069 0.028,4.15413 0.21688,4.457289 0.10541,0.169169 0.31557,0.380523 0.46702,0.469676 0.3434,0.202147 1.43577,0.402007 2.21939,0.406057 0.6883,0.0036 0.66168,-0.06304 0.47546,1.189445 l -0.10453,0.70304 -0.48206,-0.01191 c -5.28449,-0.130591 -6.41041,-0.136525 -7.73215,-0.04075 -0.79751,0.05779 -1.51336,0.123739 -1.59077,0.146558 -0.11725,0.03456 -0.15025,-0.07105 -0.19773,-0.632651 z M 38.605183,28.590857 c -0.131576,-0.428927 -0.220772,-0.798324 -0.198214,-0.820882 0.02256,-0.02256 0.274389,-0.101253 0.559626,-0.174878 1.368365,-0.353201 2.145176,-0.969374 2.735863,-2.170108 0.419825,-0.85341 6.702561,-15.23513 6.702561,-15.342735 0,-0.04036 -0.504211,-0.1208441 -1.120469,-0.1788457 C 46.668292,9.8454067 45.976238,9.7744771 45.746651,9.7457868 L 45.329222,9.6936227 V 9.045845 8.3980672 l 0.285609,-3.574e-4 c 1.197371,-0.0015 5.051184,-0.3854335 6.647955,-0.6623005 0.69592,-0.1206669 1.279204,-0.2054992 1.296187,-0.1885162 0.01698,0.016983 1.608497,3.9485759 3.536698,8.7368729 1.928201,4.788298 3.654104,8.988181 3.835341,9.333075 0.628726,1.196468 1.376163,1.639458 3.145774,1.864432 0.443145,0.05634 0.832279,0.125834 0.864742,0.154435 0.08355,0.07361 -0.314468,1.722089 -0.415285,1.719984 -0.04573,-9.54e-4 -0.498371,-0.03325 -1.005877,-0.07177 -2.988657,-0.226844 -7.887364,-0.218042 -10.150131,0.01824 -0.386672,0.04038 -0.717772,0.06119 -0.735779,0.04625 -0.03526,-0.02926 -0.358327,-1.564052 -0.333635,-1.585008 0.0082,-0.0069 0.469633,-0.09845 1.025474,-0.203366 1.260007,-0.237831 1.860673,-0.407383 2.394728,-0.675969 0.390368,-0.196324 0.417429,-0.232075 0.417429,-0.551468 0,-0.187844 -0.138022,-0.738062 -0.306716,-1.222707 -0.368481,-1.05862 -1.425536,-3.526562 -1.580933,-3.691058 -0.0835,-0.08839 -0.617052,-0.129255 -2.165401,-0.165864 -1.995176,-0.04717 -3.332977,0.0228 -4.79446,0.250758 l -0.630738,0.09838 -0.529517,1.291511 c -0.599256,1.461603 -0.977225,2.683278 -0.977225,3.15859 0,0.681919 0.449262,0.960754 2.066432,1.282532 0.612192,0.121811 1.328129,0.24675 1.590972,0.277642 0.262842,0.03089 0.496912,0.08694 0.520157,0.12455 0.02324,0.03761 -0.04355,0.420259 -0.148441,0.85033 l -0.190703,0.781947 -0.40328,-0.0665 c -1.129662,-0.186281 -4.622532,-0.275367 -6.756131,-0.172318 -1.194326,0.05768 -2.355226,0.135357 -2.579779,0.172606 l -0.408278,0.06773 z M 52.711135,18.69125 c 0.360381,-0.04323 0.477005,-0.09116 0.458438,-0.188397 -0.05206,-0.272653 -2.343507,-6.677398 -2.388489,-6.675984 -0.02599,8.16e-4 -0.706106,1.552995 -1.511378,3.449286 -1.403534,3.305108 -1.456272,3.45045 -1.274259,3.511759 0.21117,0.07113 3.957014,-0.0057 4.715688,-0.09666 z"
       id="path10" /><path
       style="fill:#333333;fill-opacity:1;stroke-width:0.999992"
       d="m 145.6932,264.93882 c 2.63064,0.40861 4.66495,2.45862 5.4252,5.46703 0.29461,1.16582 0.38386,2.0763 0.32813,3.34757 -0.0901,2.05375 -0.59965,3.66348 -1.61192,5.09148 -0.5742,0.81003 -1.15082,1.27564 -2.2607,1.82547 -1.56492,0.77526 -3.06575,1.14261 -5.31699,1.30142 l -1.15313,0.0813 -0.79432,-0.81768 c -0.95882,-0.98703 -1.78574,-2.0728 -2.53076,-3.32299 -0.94257,-1.5817 -1.8466,-3.8956 -1.58512,-4.0572 0.0587,-0.0362 0.55196,-0.11514 1.0963,-0.17533 2.4655,-0.27262 8.93303,-1.17085 9.96989,-1.38465 0.30201,-0.0623 0.31319,-0.26174 0.0684,-1.21902 -0.35476,-1.38709 -1.11347,-2.39529 -2.18432,-2.90251 -0.57525,-0.27249 -0.63987,-0.28315 -1.70118,-0.28065 -1.00332,0.002 -1.17516,0.0276 -1.89754,0.27823 -0.43688,0.15159 -1.32572,0.51925 -1.97519,0.81703 -0.64949,0.29778 -1.19247,0.52983 -1.20663,0.51566 -0.0354,-0.0353 -0.65782,-1.83283 -0.71567,-2.06653 -0.0412,-0.16619 0.0979,-0.26158 1.18738,-0.81438 1.59111,-0.80734 2.59068,-1.20864 3.65702,-1.46819 0.98214,-0.23905 2.42596,-0.33653 3.2012,-0.21611 z m -1.45626,10.5009 c -1.70382,0.0953 -3.08288,0.22605 -3.15602,0.29919 -0.0236,0.0235 0.17946,0.37677 0.45108,0.78499 0.7753,1.16521 1.80471,2.11234 2.60131,2.3934 0.33855,0.11945 0.34136,0.11851 0.9238,-0.30918 0.32131,-0.23594 0.76813,-0.65884 0.99292,-0.93977 0.39462,-0.49314 1.18768,-1.96442 1.18768,-2.20333 0,-0.14598 -0.73297,-0.15215 -3.00077,-0.0253 z m -27.49229,-10.5009 c 2.63064,0.40861 4.66495,2.45862 5.4252,5.46703 0.29462,1.16582 0.38386,2.0763 0.32814,3.34757 -0.09,2.05375 -0.59965,3.66348 -1.61192,5.09148 -0.5742,0.81003 -1.15083,1.27564 -2.26071,1.82547 -1.56492,0.77526 -3.06575,1.14261 -5.31698,1.30142 l -1.15313,0.0813 -0.79432,-0.81768 c -0.95882,-0.98703 -1.78575,-2.0728 -2.53076,-3.32299 -0.94258,-1.5817 -1.84661,-3.8956 -1.58513,-4.0572 0.0587,-0.0362 0.55197,-0.11514 1.0963,-0.17533 2.4655,-0.27262 8.93305,-1.17085 9.9699,-1.38465 0.302,-0.0623 0.31319,-0.26174 0.0683,-1.21902 -0.35474,-1.38709 -1.11347,-2.39529 -2.18431,-2.90251 -0.57524,-0.27249 -0.63987,-0.28315 -1.70118,-0.28065 -1.00332,0.002 -1.17516,0.0276 -1.89755,0.27823 -0.43688,0.15159 -1.32571,0.51925 -1.97519,0.81703 -0.64948,0.29778 -1.19245,0.52983 -1.20663,0.51566 -0.0352,-0.0353 -0.65781,-1.83283 -0.71567,-2.06653 -0.0412,-0.16619 0.0979,-0.26158 1.18738,-0.81438 1.59112,-0.80734 2.59069,-1.20864 3.65702,-1.46819 0.98216,-0.23905 2.42596,-0.33653 3.20121,-0.21611 z m -1.45624,10.5009 c -1.70383,0.0953 -3.0829,0.22605 -3.15604,0.29919 -0.0236,0.0235 0.17946,0.37677 0.45109,0.78499 0.77529,1.16521 1.8047,2.11234 2.6013,2.3934 0.33855,0.11945 0.34136,0.11851 0.9238,-0.30918 0.32132,-0.23594 0.76813,-0.65884 0.99293,-0.93977 0.39461,-0.49314 1.18768,-1.96442 1.18768,-2.20333 0,-0.14598 -0.73297,-0.15215 -3.00076,-0.0253 z M 78.396664,264.92999 c 1.01612,0.10759 1.81723,0.33418 2.73599,0.77387 1.58032,0.75628 2.67871,2.14574 3.19378,4.04006 0.16346,0.60124 0.19275,0.94845 0.19724,2.33883 0.007,1.77358 -0.14317,2.74321 -0.62919,4.09682 -1.12078,3.12151 -3.56082,5.24845 -6.69473,5.83569 -0.86304,0.16172 -2.25294,0.20769 -3.15097,0.10423 l -0.59695,-0.0688 0.0232,2.93688 0.0233,2.93688 1.60775,0.21423 1.60773,0.21424 -0.0468,0.53622 c -0.0862,0.98702 0.11217,0.8757 -1.86867,1.04874 -2.03312,0.17762 -3.5411,0.41298 -4.63565,0.72352 -0.42691,0.12113 -0.79555,0.22023 -0.81923,0.22023 -0.0237,0 -0.0319,-5.02302 -0.0181,-11.16226 l 0.0249,-11.16225 -0.23881,-0.23915 c -0.19279,-0.19308 -0.33985,-0.24646 -0.76339,-0.27709 l -0.52462,-0.0379 -0.22949,-0.82726 c -0.12622,-0.45499 -0.22949,-0.88195 -0.22949,-0.94881 0,-0.13154 0.7721,-0.50489 1.41212,-0.68283 0.21843,-0.0607 0.7546,-0.10932 1.19148,-0.10797 0.85029,0.003 1.33786,0.13344 1.91352,0.5134 l 0.32488,0.21444 0.5577,-0.25114 c 1.79508,-0.80835 3.86656,-1.1698 5.63251,-0.98281 z m -2.96248,3.00791 c -0.28803,0.0503 -0.87121,0.1956 -1.29596,0.32281 l -0.77225,0.23129 2.7e-4,3.71498 c 1.5e-4,2.04324 0.0262,4.3976 0.0578,5.23191 l 0.0575,1.51692 0.44968,0.11585 c 0.27545,0.071 0.96257,0.1152 1.77353,0.11419 1.12414,-0.001 1.43548,-0.0333 2.06366,-0.2114 l 0.73979,-0.20974 0.28905,-0.62706 c 0.63352,-1.37432 1.03182,-3.42241 1.04022,-5.34884 0.008,-1.95221 -0.32714,-3.18027 -1.09765,-4.01617 -0.7646,-0.82949 -1.8162,-1.09504 -3.30569,-0.83474 z m -16.49835,-2.99908 c 2.63063,0.40861 4.66494,2.45862 5.42519,5.46703 0.29461,1.16582 0.38386,2.0763 0.32813,3.34757 -0.0901,2.05375 -0.59965,3.66348 -1.61191,5.09148 -0.57421,0.81003 -1.15083,1.27564 -2.26071,1.82547 -1.56492,0.77526 -3.06575,1.14261 -5.31699,1.30142 l -1.15312,0.0813 -0.79432,-0.81768 c -0.95883,-0.98703 -1.78575,-2.0728 -2.53076,-3.32299 -0.94258,-1.5817 -1.84661,-3.8956 -1.58512,-4.0572 0.0587,-0.0362 0.55195,-0.11514 1.09629,-0.17533 2.4655,-0.27262 8.93304,-1.17085 9.96989,-1.38465 0.30201,-0.0623 0.31319,-0.26174 0.0684,-1.21902 -0.35477,-1.38709 -1.11348,-2.39529 -2.18432,-2.90251 -0.57526,-0.27249 -0.63988,-0.28315 -1.70119,-0.28065 -1.00331,0.002 -1.17516,0.0276 -1.89754,0.27823 -0.43687,0.15159 -1.32572,0.51925 -1.97519,0.81703 -0.64949,0.29778 -1.19247,0.52983 -1.20663,0.51566 -0.0353,-0.0353 -0.65782,-1.83283 -0.71567,-2.06653 -0.0412,-0.16619 0.0979,-0.26158 1.18739,-0.81438 1.59111,-0.80734 2.59068,-1.20864 3.65701,-1.46819 0.98214,-0.23905 2.42596,-0.33653 3.2012,-0.21611 z m -1.45626,10.5009 c -1.70383,0.0953 -3.08288,0.22605 -3.15603,0.29919 -0.0236,0.0235 0.17946,0.37677 0.45108,0.78499 0.77531,1.16521 1.80472,2.11234 2.60131,2.3934 0.33856,0.11945 0.34137,0.11851 0.9238,-0.30918 0.32131,-0.23594 0.76813,-0.65884 0.99293,-0.93977 0.39461,-0.49314 1.18767,-1.96442 1.18767,-2.20333 0,-0.14598 -0.73297,-0.15215 -3.00076,-0.0253 z M 176.0983,265.47954 c 1.7e-4,0.0154 0.0772,0.42427 0.17114,0.9086 0.094,0.48433 0.1622,0.88925 0.15161,0.89983 -0.0106,0.0106 -0.29609,0.0624 -0.63449,0.11513 -1.38376,0.21568 -2.0272,0.61861 -2.30224,1.4417 -0.14395,0.43082 -0.14633,0.9109 -0.0403,8.13626 0.062,4.22313 0.1459,7.69915 0.18654,7.72448 0.0406,0.0253 0.63231,0.11923 1.31482,0.20866 l 1.24085,0.16261 v 0.88518 0.88519 l -0.68399,-0.0541 c -1.82677,-0.14437 -4.45113,-0.16718 -5.93533,-0.0516 -6.34264,0.49398 -11.05478,-0.5601 -13.51874,-3.02404 -1.70858,-1.70858 -2.48497,-4.28558 -2.20885,-7.3316 0.28065,-3.09607 1.47222,-5.31123 3.86036,-7.17658 1.04493,-0.81618 1.96415,-1.36398 4.28898,-2.55598 l 2.08597,-1.06954 0.95892,0.13315 c 1.44456,0.20059 7.04871,0.18873 9.16689,-0.0194 0.87376,-0.0859 1.65813,-0.17633 1.74309,-0.20106 0.085,-0.0248 0.15458,-0.0324 0.15474,-0.017 z m -11.07665,2.54467 c -2.49523,0.78422 -4.47379,2.78876 -5.416,5.4871 -0.4169,1.19397 -0.55186,2.06528 -0.54926,3.54629 0.008,4.8871 1.51813,6.86994 5.61223,7.37166 0.43689,0.0535 1.49415,0.0974 2.3495,0.0976 l 1.55517,2.5e-4 0.0509,-0.50748 c 0.11472,-1.14336 0.70678,-15.0882 0.64995,-15.30853 -0.10143,-0.39325 -0.4314,-0.69676 -0.90173,-0.82944 -0.66766,-0.18834 -2.55312,-0.10812 -3.35079,0.14257 z M 47.713994,266.13688 c 0.11053,1.30759 0.13669,1.23642 -0.48004,1.30619 -1.27667,0.14444 -2.01204,0.5467 -2.20046,1.20369 -0.16885,0.58876 -0.0138,10.1131 0.16639,10.2245 0.0501,0.0309 0.75829,0.15023 1.57388,0.2651 0.81558,0.11487 1.50776,0.23295 1.53817,0.26238 0.0304,0.0295 0.0812,0.35509 0.11274,0.72366 l 0.0574,0.67014 -1.43661,0.10839 c -2.36664,0.17856 -4.75684,0.53838 -5.63539,0.84835 -0.20277,0.0715 -0.40341,0.13008 -0.44585,0.13008 -0.0425,0 -0.0772,-0.3773 -0.0772,-0.83845 0,-0.46114 -0.0146,-0.83844 -0.0324,-0.83844 -0.0179,0 -0.46465,0.21695 -0.99291,0.48212 -1.00607,0.50502 -2.32104,1.04931 -3.52944,1.4609 l -0.71554,0.24372 -0.31598,-0.54176 c -0.63967,-1.09673 -1.19801,-2.65748 -1.52055,-4.25044 -0.29773,-1.47042 -0.30685,-1.41096 0.2448,-1.59372 0.25484,-0.0844 0.71648,-0.26688 1.02587,-0.40546 l 0.56251,-0.25195 0.57215,0.50232 c 0.52098,0.45739 1.12825,1.12215 1.83313,2.00667 l 0.26478,0.33225 0.66193,-0.23908 c 0.36407,-0.13149 0.9712,-0.39411 1.34919,-0.58359 l 0.68727,-0.34452 -0.0253,-4.16755 c -0.0249,-4.10766 -0.0281,-4.17199 -0.21783,-4.47646 -0.10585,-0.16989 -0.31692,-0.38215 -0.46902,-0.47169 -0.34488,-0.20302 -1.44195,-0.40374 -2.22894,-0.4078 -0.69125,-0.004 -0.66451,0.0633 -0.47749,-1.19456 l 0.10497,-0.70606 0.48414,0.012 c 5.30721,0.13115 6.43797,0.13711 7.76539,0.0409 0.80094,-0.058 1.51986,-0.12428 1.59761,-0.14719 0.11774,-0.0347 0.15089,0.0714 0.19858,0.63537 z m 87.325136,0.35665 -0.0251,0.95569 -0.66006,0.0658 c -1.35734,0.13532 -1.92169,0.51009 -2.11653,1.40555 -0.11427,0.52516 -0.0318,9.1517 0.0894,9.34775 0.0526,0.0851 0.24228,0.0855 0.89159,0.002 0.45363,-0.0585 0.93399,-0.12737 1.0675,-0.15308 0.33727,-0.065 0.3173,0.0651 -0.1548,1.00815 -0.40154,0.8021 -0.99575,1.68623 -1.47218,2.19042 -0.23432,0.24799 -0.26752,0.35916 -0.34184,1.14472 -0.13654,1.44315 -0.19427,1.56317 -2.19312,4.55953 -1.6155,2.42169 -2.1406,3.01801 -2.89555,3.28821 -0.4007,0.1434 -2.68067,0.28142 -4.99798,0.30254 l -0.69228,0.006 0.30188,-0.42019 c 0.37403,-0.52063 1.20384,-1.9279 1.52756,-2.5906 l 0.24201,-0.49544 1.15694,-0.0491 c 2.46032,-0.10431 3.04867,-0.6521 3.23203,-3.0093 0.0458,-0.58835 0.084,-1.37752 0.0852,-1.75371 l 0.002,-0.684 -2.44916,4e-5 -2.44916,5e-5 0.0268,-0.81643 c 0.0147,-0.44904 0.0414,-0.86109 0.0592,-0.91568 0.0179,-0.0546 0.22424,-0.1272 0.45868,-0.16136 0.23443,-0.0342 0.84326,-0.1591 1.35295,-0.27764 1.91118,-0.4445 2.44393,-0.72163 2.85151,-1.48332 0.18958,-0.35429 0.19393,-0.44033 0.22127,-4.37712 0.0153,-2.20865 0.003,-4.22223 -0.0278,-4.47462 -0.12797,-1.05356 -0.6884,-1.40604 -2.46774,-1.55209 -0.98169,-0.0806 -1.19435,-0.12252 -1.1915,-0.23503 0.005,-0.1859 0.31961,-1.68273 0.3608,-1.71504 0.0181,-0.0142 0.39033,0.005 0.82719,0.042 1.71512,0.14633 5.23369,0.18901 7.14889,0.0867 1.06792,-0.0571 2.01255,-0.12475 2.09918,-0.15046 0.14538,-0.0432 0.15557,0.0267 0.13238,0.90894 z m -29.34428,-0.87925 c 0.0227,0.0384 0.0558,0.46688 0.0737,0.95222 l 0.0322,0.88244 -0.61781,0.0674 c -0.97535,0.10649 -1.48947,0.28813 -1.79255,0.63332 -0.47754,0.54389 -0.49423,0.8052 -0.3831,5.99889 0.0549,2.5682 0.1131,4.68267 0.12926,4.69882 0.0161,0.0161 0.74136,0.1348 1.61156,0.26365 0.8702,0.12886 1.58767,0.23848 1.59438,0.24361 0.007,0.005 0.0402,0.33165 0.0744,0.72558 l 0.0621,0.71625 -1.00104,0.0615 c -2.33211,0.14319 -5.11983,0.5517 -6.082316,0.89128 -0.20281,0.0716 -0.40199,0.13011 -0.4426,0.13011 -0.0406,0 -0.0853,-0.35371 -0.0992,-0.78602 l -0.0254,-0.78601 -1.41212,0.5689 c -2.28774,0.92166 -3.45484,1.16936 -4.74121,1.00626 -2.71994,-0.34485 -3.86167,-2.14505 -3.8634,-6.09148 -3.3e-4,-1.12597 0.16906,-4.22288 0.35243,-6.43731 0.0629,-0.75905 0.0569,-1.06423 -0.0244,-1.23561 -0.15824,-0.33378 -0.81568,-0.62406 -1.55352,-0.68592 -0.34564,-0.029 -0.62843,-0.089 -0.62843,-0.1333 0,-0.0443 0.0462,-0.45595 0.1025,-0.91469 l 0.1025,-0.83407 0.84626,0.067 c 1.04463,0.0827 5.69523,0.0802 6.37405,-0.003 l 0.49708,-0.0612 0.0602,0.77181 c 0.0331,0.42449 0.0783,0.83557 0.10055,0.91351 0.034,0.11917 -0.0743,0.14957 -0.68063,0.19113 -0.8103,0.0555 -1.07964,0.194 -1.33911,0.6884 -0.1473,0.28069 -0.15599,0.56171 -0.11984,3.87707 0.0231,2.12125 0.0783,3.74842 0.13572,4.00238 0.25098,1.1103 0.83224,1.91423 1.6435,2.27309 0.36845,0.16298 0.38654,0.16279 1.06702,-0.0112 0.85966,-0.21987 2.03678,-0.64708 2.70582,-0.98202 l 0.50749,-0.25406 v -4.10555 c 0,-4.40468 -0.005,-4.45508 -0.45449,-4.86915 -0.31828,-0.29301 -0.89696,-0.46469 -1.935,-0.57404 l -0.93324,-0.0983 0.1181,-0.71338 c 0.19258,-1.16337 0.17837,-1.12938 0.44983,-1.07638 0.13171,0.0257 1.33594,0.0944 2.67609,0.15274 1.905626,0.0829 2.876916,0.0826 4.457006,-10e-4 1.11122,-0.0591 2.08655,-0.12659 2.16741,-0.15004 0.0808,-0.0235 0.16565,-0.0112 0.18842,0.0272 z"
       id="path11" /></g></svg>
